<?xml version="1.0" encoding="UTF-8"?>
<svg version="1.1" xmlns="http://www.w3.org/2000/svg" width="180" height="163">
<path d="M0 0 C9.86974814 0.95407565 15.64895334 3.0218452 22.1953125 10.51171875 C24.96524002 13.91207781 27.56710823 17.35066234 30 21 C29.67 19.9275 29.34 18.855 29 17.75 C28 14 28 14 28 10 C28.99 10.33 29.98 10.66 31 11 C31.84375 13.58203125 31.84375 13.58203125 32.5 16.8125 C33.35416427 20.98671945 34.1789637 23.76364446 37 27 C36.7834375 26.20335938 36.566875 25.40671875 36.34375 24.5859375 C36.0653125 23.52632812 35.786875 22.46671875 35.5 21.375 C35.2215625 20.33085938 34.943125 19.28671875 34.65625 18.2109375 C34.00881404 15.04312582 33.8838708 12.22258533 34 9 C34.99 9 35.98 9 37 9 C40.9961581 16.7925083 42.4022676 22.90092326 42.04296875 31.640625 C41.98366897 36.27678935 42.8462226 40.52911259 44 45 C45.60202296 40.79468974 46.10182249 37.48018958 46 33 C46.495 32.01 46.495 32.01 47 31 C47.99 31 48.98 31 50 31 C49.855625 31.61488281 49.71125 32.22976562 49.5625 32.86328125 C49.2840625 34.07564453 49.2840625 34.07564453 49 35.3125 C48.7215625 36.51326172 48.7215625 36.51326172 48.4375 37.73828125 C47.90504177 40.10695938 47.90504177 40.10695938 48 43 C48.33773437 42.4946875 48.67546875 41.989375 49.0234375 41.46875 C49.69246094 40.49421875 49.69246094 40.49421875 50.375 39.5 C51.03628906 38.52546875 51.03628906 38.52546875 51.7109375 37.53125 C52.13632813 37.0259375 52.56171875 36.520625 53 36 C53.66 36 54.32 36 55 36 C54.51524126 42.78662231 53.37573699 48.81887313 48.23828125 53.66015625 C45.71942394 55.59507414 43.15865027 57.36129049 40.37373352 58.89648438 C33.93133974 62.59507784 29.02898188 67.57164145 23.83984375 72.83203125 C22.88214437 73.79279755 21.92384491 74.75296602 20.96498108 75.71257019 C18.96609087 77.71603656 16.97217341 79.72427148 14.98217773 81.73657227 C12.45197214 84.2950188 9.91321159 86.84475027 7.37108517 89.39134693 C4.92001946 91.8476097 2.47362413 94.30850429 0.02734375 96.76953125 C-0.87387711 97.67500198 -1.77509796 98.58047272 -2.70362854 99.51338196 C-7.14567452 104.00536827 -11.46669391 108.54847737 -15.57598877 113.34797668 C-17.52707336 115.61146813 -19.58433133 117.7529519 -21.6875 119.875 C-22.41324219 120.61492187 -23.13898438 121.35484375 -23.88671875 122.1171875 C-28.25873397 126.01240254 -31.80721886 126.4381602 -37.53125 126.3203125 C-42.93892819 125.61868337 -46.43475386 121.83949584 -50 118 C-49.67 117.01 -49.34 116.02 -49 115 C-46.15455313 116.15925613 -44.75592369 117.2633455 -42.625 119.5625 C-39.56456984 122.40432801 -38.1472374 123 -34 123 C-28.83520167 120.90066566 -25.32298289 117.86613444 -21.375 114.0625 C-20.71838379 113.43569336 -20.06176758 112.80888672 -19.38525391 112.16308594 C-16.91254372 109.78651534 -14.45669928 107.39311921 -12 105 C-10.87268027 103.91035019 -9.74505773 102.82101359 -8.6171875 101.73193359 C-5.48580243 98.7043701 -2.37168083 95.65977913 0.73358154 92.60543823 C1.98245551 91.38032145 3.23536044 90.15929869 4.49249268 88.94265747 C16.21217606 78.12409691 16.21217606 78.12409691 22.31225586 63.84643555 C22.34621943 61.7615248 22.34621943 61.7615248 22 59 C22.495 58.01 22.495 58.01 23 57 C23.66 57 24.32 57 25 57 C26.45606519 61.52092968 25.27032841 64.51648796 24 69 C26.27986715 63.3924159 27.67137921 58.16170032 28.5625 52.1875 C29.73459189 44.39811216 29.73459189 44.39811216 32 41 C32.66 41 33.32 41 34 41 C35.22517308 46.66642551 35.09228867 52.23708518 35 58 C39.61273188 52.61847948 41.11652199 49.05929029 41 42 C39.85402344 41.41992188 38.70804687 40.83984375 37.52734375 40.2421875 C35.99714204 39.45361729 34.46720833 38.66452688 32.9375 37.875 C31.80924805 37.30652344 31.80924805 37.30652344 30.65820312 36.7265625 C25.62402336 34.11140418 20.85489694 31.2330403 17 27 C17 26.34 17 25.68 17 25 C24.84372163 25.96794863 30.47974599 28.58842388 37 33 C32.63212304 26.81217431 26.54292166 21.57144201 19 20 C16.30837212 19.86297167 13.69904349 19.90692953 11 20 C10.505 18.515 10.505 18.515 10 17 C13.29696105 15.90101298 14.40494903 16.12875556 17.6875 16.9375 C18.49574219 17.13214844 19.30398437 17.32679687 20.13671875 17.52734375 C20.75160156 17.68332031 21.36648437 17.83929688 22 18 C15.87689993 12.96346257 9.67124455 8.28378485 3 4 C2.01 3.34 1.02 2.68 0 2 C0 1.34 0 0.68 0 0 Z M7 3 C11.26587874 7.54109672 16.03612328 11.24735246 21 15 C21.66 14.67 22.32 14.34 23 14 C16.84813518 7.35478226 16.84813518 7.35478226 9 3 C8.34 3 7.68 3 7 3 Z M36 12 C36.57021375 18.95660771 38.01302694 25.31427305 40 32 C40.33 32 40.66 32 41 32 C41.5644718 24.66186666 39.55327104 18.83911885 37 12 C36.67 12 36.34 12 36 12 Z M22 28 C25.71429658 32.17858365 29.64185802 35.17846829 35 37 C35.66 36.67 36.32 36.34 37 36 C30.38963062 30.04081301 30.38963062 30.04081301 22 28 Z M52 40 C50.82786955 41.78809697 49.66244474 43.58059125 48.5 45.375 C47.8503125 46.37273437 47.200625 47.37046875 46.53125 48.3984375 C44.8309179 50.78414197 44.8309179 50.78414197 45 53 C48.13142338 52.30480085 48.13142338 52.30480085 49.421875 49.78515625 C49.86015625 48.88667969 50.2984375 47.98820312 50.75 47.0625 C51.42289062 45.71865234 51.42289062 45.71865234 52.109375 44.34765625 C52.40328125 43.57292969 52.6971875 42.79820313 53 42 C52.67 41.34 52.34 40.68 52 40 Z M32 44 C30.37150031 48.35590568 29.65881554 52.23934612 29.375 56.875 C29.30023438 58.02742188 29.22546875 59.17984375 29.1484375 60.3671875 C29.09945312 61.23601562 29.05046875 62.10484375 29 63 C32.50119698 58.43322133 33.11961078 56.20029933 33.0625 50.375 C33.05347656 49.18648437 33.04445313 47.99796875 33.03515625 46.7734375 C33.02355469 45.85820313 33.01195312 44.94296875 33 44 C32.67 44 32.34 44 32 44 Z M45 46 C46 48 46 48 46 48 Z M43 50 C44 52 44 52 44 52 Z " fill="#86A0B6" transform="translate(125,37)"/>
<path d="M0 0 C4.00775735 2.0780964 6.93927464 4.70383423 10 8 C9.67 8.99 9.34 9.98 9 11 C6.15455313 9.84074387 4.75592369 8.7366545 2.625 6.4375 C-0.43543016 3.59567199 -1.8527626 3 -6 3 C-11.16479833 5.09933434 -14.67701711 8.13386556 -18.625 11.9375 C-19.28161621 12.56430664 -19.93823242 13.19111328 -20.61474609 13.83691406 C-23.08745628 16.21348466 -25.54330072 18.60688079 -28 21 C-29.12731973 22.08964981 -30.25494227 23.17898641 -31.3828125 24.26806641 C-34.51419757 27.2956299 -37.62831917 30.34022087 -40.73358154 33.39456177 C-41.98245551 34.61967855 -43.23536044 35.84070131 -44.49249268 37.05734253 C-56.21217606 47.87590309 -56.21217606 47.87590309 -62.31225586 62.15356445 C-62.34621943 64.2384752 -62.34621943 64.2384752 -62 67 C-62.33 67.66 -62.66 68.32 -63 69 C-63.66 69 -64.32 69 -65 69 C-66.45606519 64.47907032 -65.27032841 61.48351204 -64 57 C-66.27986715 62.6075841 -67.67137921 67.83829968 -68.5625 73.8125 C-69.73459189 81.60188784 -69.73459189 81.60188784 -72 85 C-72.66 85 -73.32 85 -74 85 C-75.22517308 79.33357449 -75.09228867 73.76291482 -75 68 C-79.61273188 73.38152052 -81.11652199 76.94070971 -81 84 C-79.85402344 84.58007812 -78.70804688 85.16015625 -77.52734375 85.7578125 C-75.99714204 86.54638271 -74.46720833 87.33547312 -72.9375 88.125 C-71.80924805 88.69347656 -71.80924805 88.69347656 -70.65820312 89.2734375 C-65.62402336 91.88859582 -60.85489694 94.7669597 -57 99 C-57 99.66 -57 100.32 -57 101 C-64.84372163 100.03205137 -70.47974599 97.41157612 -77 93 C-72.63212304 99.18782569 -66.54292166 104.42855799 -59 106 C-56.30837212 106.13702833 -53.69904349 106.09307047 -51 106 C-50.67 106.99 -50.34 107.98 -50 109 C-53.29696105 110.09898702 -54.40494903 109.87124444 -57.6875 109.0625 C-58.49574219 108.86785156 -59.30398437 108.67320313 -60.13671875 108.47265625 C-61.05904297 108.23869141 -61.05904297 108.23869141 -62 108 C-55.87689993 113.03653743 -49.67124455 117.71621515 -43 122 C-42.01 122.66 -41.02 123.32 -40 124 C-40 124.66 -40 125.32 -40 126 C-49.86974814 125.04592435 -55.64895334 122.9781548 -62.1953125 115.48828125 C-64.96524002 112.08792219 -67.56710823 108.64933766 -70 105 C-69.67 106.0725 -69.34 107.145 -69 108.25 C-68 112 -68 112 -68 116 C-69.485 115.505 -69.485 115.505 -71 115 C-71.84375 112.41796875 -71.84375 112.41796875 -72.5 109.1875 C-73.35416427 105.01328055 -74.1789637 102.23635554 -77 99 C-76.67515625 100.19496094 -76.67515625 100.19496094 -76.34375 101.4140625 C-76.0653125 102.47367187 -75.786875 103.53328125 -75.5 104.625 C-75.08234375 106.19121094 -75.08234375 106.19121094 -74.65625 107.7890625 C-74.00881404 110.95687418 -73.8838708 113.77741467 -74 117 C-74.99 117 -75.98 117 -77 117 C-80.9961581 109.2074917 -82.4022676 103.09907674 -82.04296875 94.359375 C-81.98366897 89.72321065 -82.8462226 85.47088741 -84 81 C-85.60202296 85.20531026 -86.10182249 88.51981042 -86 93 C-86.495 93.99 -86.495 93.99 -87 95 C-87.99 95 -88.98 95 -90 95 C-89.855625 94.38511719 -89.71125 93.77023438 -89.5625 93.13671875 C-89.376875 92.32847656 -89.19125 91.52023438 -89 90.6875 C-88.814375 89.88699219 -88.62875 89.08648437 -88.4375 88.26171875 C-87.90504177 85.89304062 -87.90504177 85.89304062 -88 83 C-88.33773437 83.5053125 -88.67546875 84.010625 -89.0234375 84.53125 C-89.69246094 85.50578125 -89.69246094 85.50578125 -90.375 86.5 C-91.03628906 87.47453125 -91.03628906 87.47453125 -91.7109375 88.46875 C-92.13632813 88.9740625 -92.56171875 89.479375 -93 90 C-93.66 90 -94.32 90 -95 90 C-94.51524126 83.21337769 -93.37573699 77.18112687 -88.23828125 72.33984375 C-85.71942394 70.40492586 -83.15865027 68.63870951 -80.37373352 67.10351562 C-73.93133974 63.40492216 -69.02898188 58.42835855 -63.83984375 53.16796875 C-62.88214437 52.20720245 -61.92384491 51.24703398 -60.96498108 50.28742981 C-58.96609087 48.28396344 -56.97217341 46.27572852 -54.98217773 44.26342773 C-52.45197214 41.7049812 -49.91321159 39.15524973 -47.37108517 36.60865307 C-44.92001946 34.1523903 -42.47362413 31.69149571 -40.02734375 29.23046875 C-39.12612289 28.32499802 -38.22490204 27.41952728 -37.29637146 26.48661804 C-32.85432548 21.99463173 -28.53330609 17.45152263 -24.42401123 12.65202332 C-22.47292664 10.38853187 -20.41566867 8.2470481 -18.3125 6.125 C-17.22388672 5.01511719 -17.22388672 5.01511719 -16.11328125 3.8828125 C-11.18639843 -0.50675778 -6.40617196 -0.83118054 0 0 Z M-70 63 C-74.0449982 68.89895571 -73.27748976 75.07303328 -73 82 C-68.99751185 77.99751185 -69.0598747 70.76630358 -68.875 65.3125 C-68.936875 64.1678125 -68.936875 64.1678125 -69 63 C-69.33 63 -69.66 63 -70 63 Z M-87 73 C-90.08284263 76.87036007 -92.53198701 81.00786149 -93 86 C-89.32117927 82.71533863 -87.24849899 79.33639092 -85 75 C-85 74.34 -85 73.68 -85 73 C-85.66 73 -86.32 73 -87 73 Z M-84 74 C-83 76 -83 76 -83 76 Z M-86 78 C-85 80 -85 80 -85 80 Z M-77 89 C-73.93174257 93.60238615 -70.25737952 96.33750217 -65 98 C-64.01 97.67 -63.02 97.34 -62 97 C-69.01033424 92.03951633 -69.01033424 92.03951633 -77 89 Z M-81 94 C-81.5644718 101.33813334 -79.55327104 107.16088115 -77 114 C-76.67 114 -76.34 114 -76 114 C-76.57021375 107.04339229 -78.01302694 100.68572695 -80 94 C-80.33 94 -80.66 94 -81 94 Z M-63 111 C-56.50855084 119.33174972 -56.50855084 119.33174972 -47 123 C-51.23209586 118.49486569 -55.88695859 114.485708 -61 111 C-61.66 111 -62.32 111 -63 111 Z " fill="#86A0B6" transform="translate(95,0)"/>
</svg>
