<?xml version="1.0" encoding="UTF-8"?>
<svg version="1.1" xmlns="http://www.w3.org/2000/svg" width="118" height="26">
<path d="M0 0 C2.48218975 2.11716185 4.35602138 4.06075548 6.125 6.8125 C6.23046875 9.4765625 6.23046875 9.4765625 6.125 11.8125 C13.77957117 14.54860203 21.301947 16.58423375 29.1875 13.6875 C31.74508825 11.2124146 31.89274367 9.29634489 32.125 5.8125 C30.805 5.8125 29.485 5.8125 28.125 5.8125 C29.115 6.8025 29.115 6.8025 30.125 7.8125 C30.455 7.1525 30.785 6.4925 31.125 5.8125 C31.125 7.1325 31.125 8.4525 31.125 9.8125 C29.475 9.4825 27.825 9.1525 26.125 8.8125 C25.5 6.4375 25.5 6.4375 25.125 3.8125 C27.125 1.8125 27.125 1.8125 30.0625 1.4375 C33.125 1.8125 33.125 1.8125 35 3.5625 C36.125 5.8125 36.125 5.8125 36.125 9.8125 C36.90875 9.4825 37.6925 9.1525 38.5 8.8125 C44.38840732 7.18811177 49.78582959 6.96189258 55.5625 9.0625 C58.21239344 10.87218333 59.69130175 11.94510349 61.125 14.8125 C61.75384161 20.78649527 61.75384161 20.78649527 59.9375 23.75 C57.50396796 25.17655327 55.89957104 25.16821424 53.125 24.8125 C51.125 22.8125 51.125 22.8125 51 20.1875 C51.04125 19.40375 51.0825 18.62 51.125 17.8125 C52.775 17.4825 54.425 17.1525 56.125 16.8125 C56.62 18.2975 56.62 18.2975 57.125 19.8125 C55.805 19.4825 54.485 19.1525 53.125 18.8125 C53.62 20.2975 53.62 20.2975 54.125 21.8125 C55.115 21.4825 56.105 21.1525 57.125 20.8125 C58.40625 17.96875 58.40625 17.96875 57.4375 15.75 C55.8539206 13.41233517 54.72154512 12.87222071 52.125 11.8125 C43.95767689 10.59939156 37.36896741 12.87436871 30.6875 17.5 C22.62870518 21.62767539 14.35088817 19.31418764 6.125 16.8125 C5.34125 17.781875 4.5575 18.75125 3.75 19.75 C1.39591998 22.66162529 0.14064641 23.67708048 -3.6875 24.1875 C-6.875 23.8125 -6.875 23.8125 -9.75 21.6875 C-11.875 18.8125 -11.875 18.8125 -12.5 15.75 C-11.875 12.8125 -11.875 12.8125 -9.9375 10.4375 C-5.82428084 8.25497555 -2.43520278 8.45483704 2.125 8.8125 C0.77080878 5.80751237 0.77080878 5.80751237 -1.5625 3.5625 C-11.26574909 0.41550029 -20.83894634 6.18290775 -29.3125 10.5 C-31.04306641 11.40298828 -31.04306641 11.40298828 -32.80859375 12.32421875 C-39.67886943 15.65870924 -47.21881809 15.80400696 -54.5625 13.8125 C-55.7071875 13.3175 -55.7071875 13.3175 -56.875 12.8125 C-56.545 11.8225 -56.215 10.8325 -55.875 9.8125 C-54.885 10.1425 -53.895 10.4725 -52.875 10.8125 C-41.95404381 12.41998521 -34.95041774 8.84334306 -25.71289062 3.78710938 C-17.76164669 -0.42933135 -8.72868523 -3.60532651 0 0 Z M-8.875 13.8125 C-9.20833333 16.3125 -9.20833333 16.3125 -8.875 18.8125 C-6.99831681 21.08430354 -6.99831681 21.08430354 -4 21.25 C-0.70195242 21.09682398 -0.70195242 21.09682398 1.5625 18.5 C2.078125 17.613125 2.59375 16.72625 3.125 15.8125 C2.795 14.8225 2.465 13.8325 2.125 12.8125 C-1.66471948 10.91764026 -5.85370606 10.79120606 -8.875 13.8125 Z " fill="#8FACC2" transform="translate(56.875,1.1875)"/>
</svg>
