<?xml version="1.0" encoding="UTF-8"?>
<svg version="1.1" xmlns="http://www.w3.org/2000/svg" width="118" height="25">
<path d="M0 0 C1 1 1 1 1.0625 3.5625 C1.041875 4.366875 1.02125 5.17125 1 6 C-0.65 6.33 -2.3 6.66 -4 7 C-4 6.01 -4 5.02 -4 4 C-3.34 4.33 -2.68 4.66 -2 5 C-2 4.34 -2 3.68 -2 3 C-3.32 3.33 -4.64 3.66 -6 4 C-5.06803566 8.23179595 -5.06803566 8.23179595 -2.1796875 11.171875 C4.4031174 13.67286898 10.50049593 11.78964664 16.73828125 9.16796875 C19.03889929 7.97991211 20.93592861 6.55337331 23 5 C30.42017635 2.52660788 38.6627076 3.74237157 46 6 C46.3403125 5.4946875 46.680625 4.989375 47.03125 4.46875 C50.83898642 -0.63523711 50.83898642 -0.63523711 54.0390625 -1.640625 C57.71699963 -1.83347564 59.70919002 -1.23406657 62.5625 1.0625 C64.44610971 4.91161549 64.207644 6.92420151 63 11 C61.5 12.9375 61.5 12.9375 59 14 C55.98186836 14.22896171 53.01980452 14.17421949 50 14 C51.40849311 17.16198977 51.40849311 17.16198977 54.0625 19.3125 C63.98763061 21.63540291 71.67924005 16.38348867 80.15380859 11.95849609 C88.14953773 7.80731484 94.89414564 5.89235718 104 7 C106.85546875 8.0234375 106.85546875 8.0234375 109 9 C109 9.66 109 10.32 109 11 C108.35675781 10.88140625 107.71351562 10.7628125 107.05078125 10.640625 C95.01220261 8.9232814 85.87843684 13.19164267 75.78125 19.3828125 C69.37983601 23.104983 63.37502459 24.72541225 56 24 C51.35096086 22.30131262 48.61433139 20.22315071 46 16 C45.75 13.1875 45.75 13.1875 46 11 C45.319375 10.87625 44.63875 10.7525 43.9375 10.625 C41 10 41 10 37.75 8.875 C33.21369411 7.81652862 29.48953348 7.69334473 25 9 C21.80671116 11.10599174 21.80671116 11.10599174 20 14 C20.04497842 16.27523089 20.04497842 16.27523089 21 18 C21.99 18 22.98 18 24 18 C24.33 17.34 24.66 16.68 25 16 C23.68 16.33 22.36 16.66 21 17 C21 16.01 21 15.02 21 14 C22.66611905 13.957279 24.33382885 13.95936168 26 14 C27 15 27 15 27.1875 17.4375 C27 20 27 20 25 22 C21.5625 22.0625 21.5625 22.0625 18 21 C16.42272434 18.71075964 15.83486659 16.70103897 15 14 C14.28714844 14.32226562 13.57429688 14.64453125 12.83984375 14.9765625 C8.25144789 16.6301522 3.81296775 16.58574241 -1 16 C-4.91075925 14.01031547 -6.57689098 12.63466354 -9 9 C-9.375 5.5 -9.375 5.5 -9 2 C-6.16058487 -1.36523275 -4.05325453 -1.31456904 0 0 Z M50.5625 4.3125 C49.7890625 5.6428125 49.7890625 5.6428125 49 7 C49.33 7.99 49.66 8.98 50 10 C52.77100394 11.38550197 54.9334706 11.1877467 58 11 C58.99 10.34 59.98 9.68 61 9 C61.41666667 6.5 61.41666667 6.5 61 4 C59.12331681 1.72819646 59.12331681 1.72819646 56.125 1.5625 C52.82695242 1.71567602 52.82695242 1.71567602 50.5625 4.3125 Z " fill="#8FACC2" transform="translate(9,1)"/>
</svg>
